# xmcd
#
# Track frame offsets:
#	150
#	15839
#	37827
#	54521
#	71768
#	101055
#	113944
#	135307
#	156525
#	178795
#	199066
#	216327
#	232441
#	251114
#	268758
#	284340
#	299635
#	316426
#
# Disc length: 4421 seconds
#
# Revision: 3
# Processed by: cddbd v1.5.2PL0 Copyright (c) Steve Scherf et al.
# Submitted via: EasyCDDAExtractor 2011.3.0.0
#
DISCID=1f114312
DTITLE=Various Artist - American Music: The Hightone Records Story - Singing Songwrit
DTITLE=ers and Other Folk
DYEAR=2006
DGENRE=Country
TTITLE0=Jimmy Dale Gilmore - Dallas
TTITLE1=Dave Alvin - Blue Blvd
TTITLE2=Rosie Flores - West Texas Plains
TTITLE3=Chris Smither - Link Of Chain
TTITLE4=Tom Russell - Gallo De Cielo
TTITLE5=Julie Miller - By Way Of Sorrow
TTITLE6=Ramblin Jack Elliott and Tom Waits - Louise
TTITLE7=Geoff Muldaur - Wild Ox Moan
TTITLE8=Chris Smither - No Love Today
TTITLE9=Ramblin Jack Elliott and John Prine - Walls Of Red Wing
TTITLE10=Tom Russell and Jimmy Dale Gilmore - Beyond The Blues
TTITLE11=Julie Miller - All My Tears
TTITLE12=Aztex - Padre Prays For Rain
TTITLE13=Buddy Miller - Midnight and Lonesome
TTITLE14=Po Girl - Gone In Pawn
TTITLE15=Laurie Lewis and Tom Rozum - Since You Went Away
TTITLE16=Los Reales Del Rancho - En La Central De Colima
TTITLE17=Tom Russell - Tonight We Ride
EXTD=
EXTT0=
EXTT1=
EXTT2=
EXTT3=
EXTT4=
EXTT5=
EXTT6=
EXTT7=
EXTT8=
EXTT9=
EXTT10=
EXTT11=
EXTT12=
EXTT13=
EXTT14=
EXTT15=
EXTT16=
EXTT17=
PLAYORDER=
